<svg xmlns="http://www.w3.org/2000/svg" viewBox="0 0 1721.88 455.31">
  <title>ys_logo</title>
  <g>
    <path d="M1.34,297.3a139.67,139.67,0,0,0-1.1,16.09c0,78.38,64.07,141.92,143.1,141.92s143.09-63.54,143.09-141.92h0a139.69,139.69,0,0,0-1-16.09H220.36a77.43,77.43,0,0,1-75.63,95.59h0A77.46,77.46,0,0,1,69.09,297.3Z" fill="#10e2f4"/>
    <path d="M223.53,113S121,144.93,206.34,277s-44,177.32-44,177.32S275,440.7,285.55,331c9.83-101.94-75.53-127.73-62-218Z" fill="#0e8af4"/>
    <path d="M59,70.63s-94.56,43-36.84,157.82,58.33-65.71,58.33-65.71S32.56,140.64,59,70.63Z" fill="#14f283"/>
    <path d="M100.11,0s32.09,46.61-60.17,195c-104.68,168.41,27.2,242.71,47.39,249,0,0-74.34-109.36,24.67-219.9C245.11,75.52,124.67-1.21,100.11,0Z" fill="#14f283"/>
  </g>
  <g>
    <path d="M492,185.1s-84.25,81.19-56.13,156.09h37.46S445.21,285,520.09,203.82Z" fill="#fff"/>
    <polygon points="413.95 188.25 449.35 242.19 435.84 281.88 382.75 203.87 413.95 188.25" fill="#fff"/>
    <path d="M648.08,231.86h31.21v12.48s37.45-25,59.31,6.22c0,0,12.49,18.73,0,90.53h-25s3.11-28.09,1.92-49.55C715,280,710.52,269.29,698,269.3s-18,8.52-18.34,22.86c-.37,17.72-.36,48.94-.36,48.94h-28.1Z" fill="#fff"/>
    <path d="M563.8,228.77C544.56,232,517,244.4,517,291.22c0,31.21,12.51,49.94,50,49.92s53.06-18.75,56.17-59.33C626.7,235.13,582.53,225.64,563.8,228.77Zm9.4,83.91c-25,3.29-28.1-16.4-28.1-16.4-3.14-45.92,31.19-45.93,43.68-32.82S598.17,309.39,573.2,312.68Z" fill="#fff"/>
    <path d="M1553.3,228.39c-19.24,3.21-46.81,15.62-46.8,62.45,0,31.21,12.51,49.93,50,49.92s53-18.75,56.16-59.33C1616.2,234.75,1572,225.26,1553.3,228.39Zm9.4,83.91c-25,3.29-28.1-16.4-28.1-16.4-3.14-45.92,31.2-45.94,43.69-32.82S1587.67,309,1562.7,312.3Z" fill="#fff"/>
    <rect x="769.84" y="234.93" width="28.09" height="106.13" fill="#fff"/>
    <rect x="1453.44" y="234.66" width="28.09" height="106.13" fill="#fff"/>
    <path d="M902.39,307a25.82,25.82,0,0,1-16.75,8.68c-26.28,3.29-29.57-16.39-29.57-16.39-3.3-45.93,32.83-45.94,46-32.83a22.35,22.35,0,0,1,2.73,3.43l21.13-19.27c-13.95-17.26-36.75-21-50.15-18.85-20.25,3.22-48.54,15.61-49.24,62.45-.47,31.21,13.15,49.94,52.57,49.92,21.11,0,35.57-5.44,45-16.67Z" fill="#fff"/>
    <path d="M954,306.66v28.09s59.32,15.58,90.52-6.28,14.44-60.5-37.48-74.9c-56.2-15.58-8.48-48.29,12.47-34.34,9.37,6.24,0,18.73,0,18.73l31.21,6.23s21.83-59.32-37.48-59.29-73.77,44.17-68.64,62.45c4.21,15,18.73,28.09,50,37.44,36.38,10.9,21.86,25,6.26,25S966.5,306.65,954,306.66Z" fill="#fff"/>
    <polygon points="1078.84 225.45 1153.75 222.3 1153.76 250.39 1078.85 250.42 1078.84 225.45" fill="#fff"/>
    <path d="M1094.43,184.86h31.22s-1.83,47,0,84.28c1.47,29.37,3.14,49.94,25,40.57l6.25,25s-62.42,21.88-62.45-46.8Z" fill="#fff"/>
    <path d="M1191.21,231.65s-27.87,104.71,31.26,109.24c21.9,1.67,44.85,2.53,56.18-6.27,9.68-7.5,12.48-24,12.48-31.22,0-15.6-3.15-71.79-3.15-71.79h-28.09s6.26,59.31,0,71.8-40.57,12.5-43.7-3.11c-4.67-23.31,3.1-68.67,3.1-68.67Z" fill="#fff"/>
    <path d="M1397.23,234.69s-61.17-19.36-78,31.25c-12.47,37.46,0,68.67,31.24,74.9,28.22,5.63,40.58,0,59.29-37.48S1397.23,234.69,1397.23,234.69Zm0,56.19s-.83,30.68-40.57,21.86c-28.09-6.23-12.51-78,46.81-46.84Z" fill="#fff"/>
    <path d="M1397.21,184.75l0,74.91,0,81.16h28.1l-.06-156.07Z" fill="#fff"/>
    <path d="M1700,275.15l21.85-6.25s-3.14-49.94-53.08-37.43-47.79,49.66-15.59,59.31c31.22,9.35,46.83,15.59,28.11,25s-43.71-3.1-43.71-3.1l0,28.09s56.18,6.22,71.79-9.39c0,0,34.32-28.11-18.75-49.94-16-6.58-30.72-10.32-31.22-15.59C1658.27,253.58,1695.66,246.81,1700,275.15Z" fill="#fff"/>
    <ellipse cx="783.86" cy="209.96" rx="17.17" ry="15.61" fill="#fff"/>
    <ellipse cx="1467.46" cy="209.69" rx="17.17" ry="15.61" fill="#fff"/>
  </g>
</svg>
